<?xml version="1.0" encoding="UTF-8"?>
<svg xmlns="http://www.w3.org/2000/svg" xmlns:xlink="http://www.w3.org/1999/xlink" width="400pt" height="400pt" viewBox="0 0 400 400" version="1.1">
<g id="surface1">
<path style=" stroke:none;fill-rule:nonzero;fill:rgb(11.399841%,62.69989%,94.499207%);fill-opacity:1;" d="M 400 200 C 400 310.457031 310.457031 400 200 400 C 89.542969 400 0 310.457031 0 200 C 0 89.542969 89.542969 0 200 0 C 310.457031 0 400 89.542969 400 200 "/>
<path style=" stroke:none;fill-rule:nonzero;fill:rgb(100%,100%,100%);fill-opacity:1;" d="M 156.40625 295.492188 C 245.089844 295.492188 293.585938 222.023438 293.585938 158.3125 C 293.585938 156.226563 293.542969 154.148438 293.449219 152.078125 C 302.859375 145.273438 311.042969 136.785156 317.5 127.117188 C 308.859375 130.953125 299.5625 133.539063 289.8125 134.707031 C 299.765625 128.738281 307.40625 119.296875 311.011719 108.035156 C 301.695313 113.558594 291.382813 117.578125 280.398438 119.738281 C 271.601563 110.367188 259.070313 104.507813 245.203125 104.507813 C 218.578125 104.507813 196.984375 126.097656 196.984375 152.714844 C 196.984375 156.503906 197.40625 160.179688 198.234375 163.710938 C 158.164063 161.695313 122.632813 142.507813 98.855469 113.335938 C 94.710938 120.460938 92.328125 128.738281 92.328125 137.570313 C 92.328125 154.296875 100.839844 169.0625 113.78125 177.703125 C 105.875 177.457031 98.441406 175.285156 91.945313 171.671875 C 91.933594 171.871094 91.933594 172.074219 91.933594 172.285156 C 91.933594 195.636719 108.554688 215.132813 130.613281 219.550781 C 126.566406 220.652344 122.304688 221.246094 117.90625 221.246094 C 114.800781 221.246094 111.777344 220.941406 108.84375 220.378906 C 114.980469 239.535156 132.777344 253.472656 153.882813 253.867188 C 137.378906 266.796875 116.589844 274.503906 94.003906 274.503906 C 90.109375 274.503906 86.273438 274.28125 82.5 273.835938 C 103.839844 287.511719 129.175781 295.492188 156.40625 295.492188 "/>
</g>
</svg>
