<svg xmlns="http://www.w3.org/2000/svg" version="1.1" xmlns:xlink="http://www.w3.org/1999/xlink" xmlns:svgjs="http://svgjs.com/svgjs" width="512" height="512" x="0" y="0" viewBox="0 0 320.591 320.591" style="enable-background:new 0 0 512 512" xml:space="preserve" class=""><g><g xmlns="http://www.w3.org/2000/svg"><g id="close_1_"><path d="m30.391 318.583c-7.86.457-15.59-2.156-21.56-7.288-11.774-11.844-11.774-30.973 0-42.817l257.812-257.813c12.246-11.459 31.462-10.822 42.921 1.424 10.362 11.074 10.966 28.095 1.414 39.875l-259.331 259.331c-5.893 5.058-13.499 7.666-21.256 7.288z" fill="#222" data-original="#222" class=""></path><path d="m287.9 318.583c-7.966-.034-15.601-3.196-21.257-8.806l-257.813-257.814c-10.908-12.738-9.425-31.908 3.313-42.817 11.369-9.736 28.136-9.736 39.504 0l259.331 257.813c12.243 11.462 12.876 30.679 1.414 42.922-.456.487-.927.958-1.414 1.414-6.35 5.522-14.707 8.161-23.078 7.288z" fill="#222" data-original="#222" class=""></path></g></g></g></svg>