<svg xmlns="http://www.w3.org/2000/svg" version="1.1" xmlns:xlink="http://www.w3.org/1999/xlink" xmlns:svgjs="http://svgjs.com/svgjs" width="512" height="512" x="0" y="0" viewBox="0 0 297.001 297.001" style="enable-background:new 0 0 512 512" xml:space="preserve" class=""><g transform="matrix(0.76,0,0,0.76,35.640119150402015,35.64012084960933)">
    <g xmlns="http://www.w3.org/2000/svg">
        <g>
            <g>
                <path d="M107.883,0h-85.27C10.144,0,0.001,10.143,0.001,22.612v85.27c0,12.469,10.143,22.612,22.612,22.612h85.27     c12.469,0,22.612-10.143,22.612-22.612v-85.27C130.493,10.143,120.352,0,107.883,0z" fill="#222" data-original="#000000" class=""></path>
                <path d="M274.388,0h-85.27c-12.469,0-22.612,10.143-22.612,22.612v85.27c0,12.469,10.143,22.612,22.612,22.612h85.27     c12.469,0,22.612-10.143,22.612-22.612v-85.27C297,10.143,286.857,0,274.388,0z" fill="#222" data-original="#000000" class=""></path>
                <path d="M107.883,166.507h-85.27c-12.469,0-22.612,10.142-22.612,22.611v85.27C0.001,286.857,10.144,297,22.613,297h85.27     c12.469,0,22.612-10.143,22.612-22.612v-85.27C130.493,176.649,120.352,166.507,107.883,166.507z" fill="#222" data-original="#000000" class=""></path>
                <path d="M274.388,166.507h-85.27c-12.469,0-22.612,10.143-22.612,22.612v85.27c0,12.469,10.143,22.612,22.612,22.612h85.27     C286.857,297,297,286.857,297,274.388v-85.27C297,176.649,286.857,166.507,274.388,166.507z" fill="#222" data-original="#000000" class=""></path>
            </g>
        </g>
    </g>
    <g xmlns="http://www.w3.org/2000/svg">
    </g>
    <g xmlns="http://www.w3.org/2000/svg">
    </g>
    <g xmlns="http://www.w3.org/2000/svg">
    </g>
    <g xmlns="http://www.w3.org/2000/svg">
    </g>
    <g xmlns="http://www.w3.org/2000/svg">
    </g>
    <g xmlns="http://www.w3.org/2000/svg">
    </g>
    <g xmlns="http://www.w3.org/2000/svg">
    </g>
    <g xmlns="http://www.w3.org/2000/svg">
    </g>
    <g xmlns="http://www.w3.org/2000/svg">
    </g>
    <g xmlns="http://www.w3.org/2000/svg">
    </g>
    <g xmlns="http://www.w3.org/2000/svg">
    </g>
    <g xmlns="http://www.w3.org/2000/svg">
    </g>
    <g xmlns="http://www.w3.org/2000/svg">
    </g>
    <g xmlns="http://www.w3.org/2000/svg">
    </g>
    <g xmlns="http://www.w3.org/2000/svg">
    </g>
    </g></svg>